<svg xmlns="http://www.w3.org/2000/svg" width="40" height="40" viewBox="0 0 40 40">
  <g id="Group_257" data-name="Group 257" transform="translate(-5054 -488)">
    <circle id="Ellipse_56" data-name="Ellipse 56" cx="20" cy="20" r="20" transform="translate(5054 488)" fill="#fff"/>
    <path id="Icon_awesome-user" data-name="Icon awesome-user" d="M11.325,12.943A6.471,6.471,0,1,0,4.853,6.471,6.471,6.471,0,0,0,11.325,12.943Zm4.53,1.618H15.01a8.8,8.8,0,0,1-7.371,0H6.795A6.8,6.8,0,0,0,0,21.355v2.1a2.427,2.427,0,0,0,2.427,2.427h17.8a2.427,2.427,0,0,0,2.427-2.427v-2.1A6.8,6.8,0,0,0,15.855,14.56Z" transform="translate(5062.351 495.057)" fill="#707070"/>
  </g>
</svg>
