<svg xmlns="http://www.w3.org/2000/svg" xmlns:xlink="http://www.w3.org/1999/xlink" width="58" height="58" viewBox="0 0 58 58">
  <defs>
    <filter id="Ellipse_87" x="0" y="0" width="58" height="58" filterUnits="userSpaceOnUse">
      <feOffset dy="6" input="SourceAlpha"/>
      <feGaussianBlur stdDeviation="2.5" result="blur"/>
      <feFlood flood-opacity="0.161"/>
      <feComposite operator="in" in2="blur"/>
      <feComposite in="SourceGraphic"/>
    </filter>
    <filter id="Path_560" x="15.402" y="19.19" width="26.75" height="23.125" filterUnits="userSpaceOnUse">
      <feOffset dy="5" input="SourceAlpha"/>
      <feGaussianBlur stdDeviation="1.5" result="blur-2"/>
      <feFlood flood-opacity="0.161"/>
      <feComposite operator="in" in2="blur-2"/>
      <feComposite in="SourceGraphic"/>
    </filter>
    <filter id="Path_561" x="12.095" y="14.929" width="15.741" height="17.898" filterUnits="userSpaceOnUse">
      <feOffset dy="6" input="SourceAlpha"/>
      <feGaussianBlur stdDeviation="1.5" result="blur-3"/>
      <feFlood flood-opacity="0.161"/>
      <feComposite operator="in" in2="blur-3"/>
      <feComposite in="SourceGraphic"/>
    </filter>
    <filter id="Path_562" x="18.479" y="9.854" width="16.718" height="19.294" filterUnits="userSpaceOnUse">
      <feOffset dy="6" input="SourceAlpha"/>
      <feGaussianBlur stdDeviation="1.5" result="blur-4"/>
      <feFlood flood-opacity="0.161"/>
      <feComposite operator="in" in2="blur-4"/>
      <feComposite in="SourceGraphic"/>
    </filter>
    <filter id="Path_563" x="26.678" y="11.919" width="16.194" height="18.47" filterUnits="userSpaceOnUse">
      <feOffset dy="6" input="SourceAlpha"/>
      <feGaussianBlur stdDeviation="1.5" result="blur-5"/>
      <feFlood flood-opacity="0.161"/>
      <feComposite operator="in" in2="blur-5"/>
      <feComposite in="SourceGraphic"/>
    </filter>
    <filter id="Path_564" x="31.427" y="18.631" width="15.941" height="17.7" filterUnits="userSpaceOnUse">
      <feOffset dy="6" input="SourceAlpha"/>
      <feGaussianBlur stdDeviation="1.5" result="blur-6"/>
      <feFlood flood-opacity="0.161"/>
      <feComposite operator="in" in2="blur-6"/>
      <feComposite in="SourceGraphic"/>
    </filter>
  </defs>
  <g id="Group_438" data-name="Group 438" transform="translate(-36.479 -446.479)">
    <g transform="matrix(1, 0, 0, 1, 36.48, 446.48)" filter="url(#Ellipse_87)">
      <circle id="Ellipse_87-2" data-name="Ellipse 87" cx="21.5" cy="21.5" r="21.5" transform="translate(7.5 1.5)" fill="#fff"/>
    </g>
    <g transform="matrix(1, 0, 0, 1, 36.48, 446.48)" filter="url(#Path_560)">
      <path id="Path_560-2" data-name="Path 560" d="M78.72,184.9a6.4,6.4,0,0,0-10.772,0L65.1,189.339a4.049,4.049,0,0,0,5.039,5.892l.054-.024a7.96,7.96,0,0,1,6.338.024,4.027,4.027,0,0,0,1.625.344,4.078,4.078,0,0,0,.906-.1,4.05,4.05,0,0,0,2.508-6.133Zm0,0" transform="translate(-44.56 -162.76)" fill="#2f3542" opacity="0.8"/>
    </g>
    <g transform="matrix(1, 0, 0, 1, 36.48, 446.48)" filter="url(#Path_561)">
      <path id="Path_561-2" data-name="Path 561" d="M4.715,106.1a3.105,3.105,0,0,0,1.813-1.923,4.012,4.012,0,0,0-.071-2.767,4.015,4.015,0,0,0-1.8-2.1,3.106,3.106,0,0,0-2.633-.212,3.556,3.556,0,0,0-1.741,4.69,3.751,3.751,0,0,0,3.374,2.509,2.941,2.941,0,0,0,1.061-.2Zm0,0" transform="translate(16.6 -83.97)" fill="#f7afb8"/>
    </g>
    <g transform="matrix(1, 0, 0, 1, 36.48, 446.48)" filter="url(#Path_562)">
      <path id="Path_562-2" data-name="Path 562" d="M128.273,8.795a4.159,4.159,0,0,0,3.859-4.4,3.892,3.892,0,1,0-7.718,0A4.159,4.159,0,0,0,128.273,8.795Zm0,0" transform="translate(-101.43 9.85)" fill="#f7afb8"/>
    </g>
    <g transform="matrix(1, 0, 0, 1, 36.48, 446.48)" filter="url(#Path_563)">
      <path id="Path_563-2" data-name="Path 563" d="M286.519,48.062h0a3.145,3.145,0,0,0,.994.161,4,4,0,0,0,3.641-2.865,4.312,4.312,0,0,0-.062-2.975,3.262,3.262,0,0,0-4.836-1.607,4.313,4.313,0,0,0-1.83,2.346,3.815,3.815,0,0,0,2.092,4.941Zm0,0" transform="translate(-253.02 -28.33)" fill="#f7afb8"/>
    </g>
    <g transform="matrix(1, 0, 0, 1, 36.48, 446.48)" filter="url(#Path_564)">
      <path id="Path_564-2" data-name="Path 564" d="M382.438,171.638h0a3.782,3.782,0,0,0-4.465,6.031,3.017,3.017,0,0,0,1.812.585,3.9,3.9,0,0,0,3.081-1.632A3.557,3.557,0,0,0,382.438,171.638Zm0,0" transform="translate(-340.81 -152.42)" fill="#f7afb8"/>
    </g>
  </g>
</svg>
