<svg xmlns="http://www.w3.org/2000/svg" width="54" height="38" viewBox="0 0 54 38">
  <g id="Group_264" data-name="Group 264" transform="translate(-156 -565)">
    <rect id="Rectangle_138" data-name="Rectangle 138" width="54" height="38" rx="9" transform="translate(156 565)" fill="#ff6b81" opacity="0.6"/>
    <path id="Icon_awesome-chevron-right" data-name="Icon awesome-chevron-right" d="M16.455,15.894,5.515,26.834a1.351,1.351,0,0,1-1.911,0L2.329,25.558a1.351,1.351,0,0,1,0-1.908L11,14.939,2.327,6.228a1.351,1.351,0,0,1,0-1.908L3.6,3.043a1.351,1.351,0,0,1,1.911,0l10.94,10.94A1.351,1.351,0,0,1,16.455,15.894Z" transform="translate(174.925 569.414)" fill="#f4e3e3"/>
  </g>
</svg>
