<svg xmlns="http://www.w3.org/2000/svg" xmlns:xlink="http://www.w3.org/1999/xlink" width="112" height="112" viewBox="0 0 112 112">
  <defs>
    <filter id="Ellipse_87" x="0" y="0" width="112" height="112" filterUnits="userSpaceOnUse">
      <feOffset dy="6" input="SourceAlpha"/>
      <feGaussianBlur stdDeviation="2.5" result="blur"/>
      <feFlood flood-opacity="0.161"/>
      <feComposite operator="in" in2="blur"/>
      <feComposite in="SourceGraphic"/>
    </filter>
    <filter id="Path_560" x="30.958" y="38.398" width="49.08" height="40.266" filterUnits="userSpaceOnUse">
      <feOffset dy="5" input="SourceAlpha"/>
      <feGaussianBlur stdDeviation="1.5" result="blur-2"/>
      <feFlood flood-opacity="0.161"/>
      <feComposite operator="in" in2="blur-2"/>
      <feComposite in="SourceGraphic"/>
    </filter>
    <filter id="Path_561" x="23.49" y="28.775" width="24.221" height="27.205" filterUnits="userSpaceOnUse">
      <feOffset dy="6" input="SourceAlpha"/>
      <feGaussianBlur stdDeviation="1.5" result="blur-3"/>
      <feFlood flood-opacity="0.161"/>
      <feComposite operator="in" in2="blur-3"/>
      <feComposite in="SourceGraphic"/>
    </filter>
    <filter id="Path_562" x="37.905" y="17.317" width="26.427" height="30.358" filterUnits="userSpaceOnUse">
      <feOffset dy="6" input="SourceAlpha"/>
      <feGaussianBlur stdDeviation="1.5" result="blur-4"/>
      <feFlood flood-opacity="0.161"/>
      <feComposite operator="in" in2="blur-4"/>
      <feComposite in="SourceGraphic"/>
    </filter>
    <filter id="Path_563" x="56.418" y="21.981" width="25.244" height="28.495" filterUnits="userSpaceOnUse">
      <feOffset dy="6" input="SourceAlpha"/>
      <feGaussianBlur stdDeviation="1.5" result="blur-5"/>
      <feFlood flood-opacity="0.161"/>
      <feComposite operator="in" in2="blur-5"/>
      <feComposite in="SourceGraphic"/>
    </filter>
    <filter id="Path_564" x="67.14" y="37.136" width="24.673" height="26.757" filterUnits="userSpaceOnUse">
      <feOffset dy="6" input="SourceAlpha"/>
      <feGaussianBlur stdDeviation="1.5" result="blur-6"/>
      <feFlood flood-opacity="0.161"/>
      <feComposite operator="in" in2="blur-6"/>
      <feComposite in="SourceGraphic"/>
    </filter>
    <filter id="Register" x="18.5" y="63.5" width="77" height="39" filterUnits="userSpaceOnUse">
      <feOffset dy="3" input="SourceAlpha"/>
      <feGaussianBlur stdDeviation="3" result="blur-7"/>
      <feFlood flood-opacity="0.161"/>
      <feComposite operator="in" in2="blur-7"/>
      <feComposite in="SourceGraphic"/>
    </filter>
  </defs>
  <g id="Group_437" data-name="Group 437" transform="translate(-36.5 -446.5)">
    <g transform="matrix(1, 0, 0, 1, 36.5, 446.5)" filter="url(#Ellipse_87)">
      <circle id="Ellipse_87-2" data-name="Ellipse 87" cx="48.5" cy="48.5" r="48.5" transform="translate(7.5 1.5)" fill="#f4e3e3"/>
    </g>
    <g transform="matrix(1, 0, 0, 1, 36.5, 446.5)" filter="url(#Path_560)">
      <path id="Path_560-2" data-name="Path 560" d="M96.661,188.6a14.444,14.444,0,0,0-24.323,0l-6.432,10.035a9.143,9.143,0,0,0,11.377,13.3l.121-.054a17.973,17.973,0,0,1,14.312.054,9.093,9.093,0,0,0,3.669.776,9.209,9.209,0,0,0,2.047-.232,9.144,9.144,0,0,0,5.662-13.849Zm0,0" transform="translate(-29 -143.55)" fill="#2f3542" opacity="0.8"/>
    </g>
    <g transform="matrix(1, 0, 0, 1, 36.5, 446.5)" filter="url(#Path_561)">
      <path id="Path_561-2" data-name="Path 561" d="M10.647,115.155a7.012,7.012,0,0,0,4.093-4.342,9.058,9.058,0,0,0-.16-6.248,9.066,9.066,0,0,0-4.071-4.741,7.013,7.013,0,0,0-5.945-.479c-3.843,1.478-5.607,6.227-3.931,10.59A8.47,8.47,0,0,0,8.251,115.6a6.641,6.641,0,0,0,2.4-.444Zm0,0" transform="translate(27.99 -70.12)" fill="#f7afb8"/>
    </g>
    <g transform="matrix(1, 0, 0, 1, 36.5, 446.5)" filter="url(#Path_562)">
      <path id="Path_562-2" data-name="Path 562" d="M133.127,19.858c4.8,0,8.714-4.454,8.714-9.928S137.932,0,133.127,0s-8.713,4.454-8.713,9.93S128.322,19.858,133.127,19.858Zm0,0" transform="translate(-82.01 17.32)" fill="#f7afb8"/>
    </g>
    <g transform="matrix(1, 0, 0, 1, 36.5, 446.5)" filter="url(#Path_563)">
      <path id="Path_563-2" data-name="Path 563" d="M289.443,57.886h0a7.1,7.1,0,0,0,2.244.363,9.031,9.031,0,0,0,8.222-6.47,9.736,9.736,0,0,0-.139-6.717,7.366,7.366,0,0,0-10.92-3.629,9.738,9.738,0,0,0-4.132,5.3c-1.582,4.76.538,9.764,4.725,11.157Zm0,0" transform="translate(-223.28 -18.27)" fill="#f7afb8"/>
    </g>
    <g transform="matrix(1, 0, 0, 1, 36.5, 446.5)" filter="url(#Path_564)">
      <path id="Path_564-2" data-name="Path 564" d="M389.612,172.373h0c-3.313-2.448-8.269-1.387-11.047,2.366s-2.342,8.8.967,11.252a6.812,6.812,0,0,0,4.091,1.321,8.81,8.81,0,0,0,6.958-3.685C393.355,179.871,392.921,174.824,389.612,172.373Zm0,0" transform="translate(-305.09 -133.92)" fill="#f7afb8"/>
    </g>
    <g transform="matrix(1, 0, 0, 1, 36.5, 446.5)" filter="url(#Register)">
      <text id="Register-2" data-name="Register" transform="translate(27.5 86.5)" fill="#2f3542" font-size="16" font-family="SegoeUI-Semibold, Segoe UI" font-weight="600" opacity="0.8"><tspan x="0" y="0">Register</tspan></text>
    </g>
  </g>
</svg>
