<svg xmlns="http://www.w3.org/2000/svg" width="26.8" height="26.8" viewBox="0 0 26.8 26.8">
  <path id="Icon_awesome-plus" data-name="Icon awesome-plus" d="M24.886,12.779H16.271V4.164A1.915,1.915,0,0,0,14.357,2.25H12.443a1.915,1.915,0,0,0-1.914,1.914v8.614H1.914A1.915,1.915,0,0,0,0,14.693v1.914a1.915,1.915,0,0,0,1.914,1.914h8.614v8.614a1.915,1.915,0,0,0,1.914,1.914h1.914a1.915,1.915,0,0,0,1.914-1.914V18.521h8.614A1.915,1.915,0,0,0,26.8,16.607V14.693A1.915,1.915,0,0,0,24.886,12.779Z" transform="translate(0 -2.25)" fill="#f4e3e3"/>
</svg>
