<svg xmlns="http://www.w3.org/2000/svg" width="24.509" height="27.885" viewBox="0 0 24.509 27.885">
  <g id="notification_2_" data-name="notification (2)" transform="translate(-30.999)">
    <path id="Path_583" data-name="Path 583" d="M191.024,469.451A4.09,4.09,0,0,0,194.766,467h-7.485A4.09,4.09,0,0,0,191.024,469.451Z" transform="translate(-147.77 -441.565)" fill="#707070"/>
    <path id="Path_584" data-name="Path 584" d="M51.7,13.5V11.71A8.457,8.457,0,0,0,45.7,3.631V2.451a2.451,2.451,0,0,0-4.9,0v1.18a8.457,8.457,0,0,0-5.991,8.079V13.5a12.828,12.828,0,0,1-3.585,8.919.817.817,0,0,0,.59,1.382H54.691a.817.817,0,0,0,.59-1.382A12.828,12.828,0,0,1,51.7,13.5ZM44.07,3.307c-.269-.026-.541-.04-.817-.04s-.548.014-.817.04V2.451a.817.817,0,1,1,1.634,0Z" fill="#707070"/>
    <path id="Path_585" data-name="Path 585" d="M392.842,60.411a.817.817,0,1,0,1.634,0,12.174,12.174,0,0,0-3.589-8.665.817.817,0,1,0-1.155,1.155A10.551,10.551,0,0,1,392.842,60.411Z" transform="translate(-338.969 -48.702)" fill="#707070"/>
    <path id="Path_586" data-name="Path 586" d="M31.817,61.229a.817.817,0,0,0,.817-.817,10.551,10.551,0,0,1,3.111-7.51.817.817,0,0,0-1.155-1.155A12.174,12.174,0,0,0,31,60.412.817.817,0,0,0,31.817,61.229Z" transform="translate(-0.001 -48.702)" fill="#707070"/>
  </g>
</svg>
