<svg xmlns="http://www.w3.org/2000/svg" width="32.359" height="28.281" viewBox="0 0 32.359 28.281">
  <g id="pawprint" transform="translate(0 0)" opacity="0.4">
    <path id="Path_560" data-name="Path 560" d="M82.024,185.578a7.879,7.879,0,0,0-13.267,0l-3.509,5.473a4.987,4.987,0,0,0,6.206,7.257l.066-.029a9.8,9.8,0,0,1,7.806.029,4.96,4.96,0,0,0,2,.423,5.023,5.023,0,0,0,1.116-.127,4.988,4.988,0,0,0,3.089-7.554Zm0,0" transform="translate(-60.386 -170.45)" fill="#2f3542"/>
    <path id="Path_561" data-name="Path 561" d="M5.807,107.764A3.825,3.825,0,0,0,8.04,105.4a4.941,4.941,0,0,0-.087-3.408A4.945,4.945,0,0,0,5.732,99.4,3.825,3.825,0,0,0,2.49,99.14a4.38,4.38,0,0,0-2.144,5.776,4.62,4.62,0,0,0,4.155,3.09,3.622,3.622,0,0,0,1.307-.242Zm0,0" transform="translate(0 -92.644)" fill="#ff6b81"/>
    <path id="Path_562" data-name="Path 562" d="M129.166,10.832c2.621,0,4.753-2.429,4.753-5.415S131.787,0,129.166,0s-4.753,2.43-4.753,5.416S126.546,10.832,129.166,10.832Zm0,0" transform="translate(-116.551)" fill="#ff6b81"/>
    <path id="Path_563" data-name="Path 563" d="M287.057,49.871h0a3.874,3.874,0,0,0,1.224.2,4.926,4.926,0,0,0,4.485-3.529,5.311,5.311,0,0,0-.076-3.664,4.018,4.018,0,0,0-5.957-1.98,5.311,5.311,0,0,0-2.254,2.889c-.863,2.6.293,5.326,2.577,6.085Zm0,0" transform="translate(-266.234 -37.708)" fill="#ff6b81"/>
    <path id="Path_564" data-name="Path 564" d="M383.759,171.774h0a4.657,4.657,0,0,0-5.5,7.428,3.716,3.716,0,0,0,2.232.721,4.806,4.806,0,0,0,3.8-2.01A4.381,4.381,0,0,0,383.759,171.774Zm0,0" transform="translate(-352.926 -160.243)" fill="#ff6b81"/>
  </g>
</svg>
